# WaveFront *.obj file (generated by Autodesk ATF)

mtllib CAP0603.mtl

g Solid1

v 0.450000 -0.395000 0.896000
v -0.450000 -0.395000 0.896000
v -0.450000 -0.395000 0.005000
v 0.450000 -0.395000 0.005000
v 0.450000 0.395000 0.896000
v -0.450000 0.395000 0.896000
v -0.450000 0.395000 0.005000
v 0.450000 0.395000 0.005000
v 0.450000 -0.400000 0.900000
v 0.800000 -0.400000 0.900000
v 0.800000 0.400000 0.900000
v 0.450000 0.400000 0.900000
v 0.450000 -0.400000 -0.000000
v 0.800000 -0.400000 -0.000000
v 0.800000 0.400000 -0.000000
v 0.450000 0.400000 -0.000000
v -0.450000 -0.400000 0.000000
v -0.800000 -0.400000 0.000000
v -0.800000 0.400000 0.000000
v -0.450000 0.400000 0.000000
v -0.450000 -0.400000 0.900000
v -0.800000 -0.400000 0.900000
v -0.450000 0.400000 0.900000
v -0.800000 0.400000 0.900000
vt -0.044550 -0.045000 0.000000
vt 0.044550 -0.045000 0.000000
vt -0.044550 0.045000 0.000000
vt 0.044550 0.045000 0.000000
vt 0.045000 0.079000 0.000000
vt -0.045000 0.079000 0.000000
vt 0.045000 0.000000 0.000000
vt -0.045000 0.000000 0.000000
vt 0.045000 0.079000 0.000000
vt -0.045000 0.079000 0.000000
vt 0.045000 0.000000 0.000000
vt -0.045000 0.000000 0.000000
vt -0.017500 0.000000 0.000000
vt 0.017500 0.000000 0.000000
vt -0.017500 0.080000 0.000000
vt 0.017500 0.080000 0.000000
vt 0.017500 0.045000 0.000000
vt -0.017500 0.045000 0.000000
vt 0.017500 -0.045000 0.000000
vt -0.017500 -0.045000 0.000000
vt 0.017500 0.045000 0.000000
vt -0.017500 0.045000 0.000000
vt 0.017500 -0.045000 0.000000
vt -0.017500 -0.045000 0.000000
vt -0.017500 0.000000 0.000000
vt 0.017500 0.000000 0.000000
vt -0.017500 0.080000 0.000000
vt 0.017500 0.080000 0.000000
vt -0.017500 -0.045000 0.000000
vt 0.017500 -0.045000 0.000000
vt -0.017500 0.045000 0.000000
vt 0.017500 0.045000 0.000000
vt -0.017500 0.000000 0.000000
vt 0.017500 0.000000 0.000000
vt -0.017500 0.080000 0.000000
vt 0.017500 0.080000 0.000000
vt 0.044500 0.000500 0.000000
vt -0.044600 0.000500 0.000000
vt -0.045000 0.000000 0.000000
vt -0.044600 0.079500 0.000000
vt -0.045000 0.080000 0.000000
vt 0.044500 0.079500 0.000000
vt 0.045000 0.080000 0.000000
vt 0.045000 0.000000 0.000000
vt 0.045000 0.080000 0.000000
vt 0.044600 0.079500 0.000000
vt 0.045000 0.000000 0.000000
vt 0.044600 0.000500 0.000000
vt -0.044500 0.000500 0.000000
vt -0.044500 0.079500 0.000000
vt -0.045000 0.080000 0.000000
vt -0.045000 0.000000 0.000000
vt -0.017500 -0.045000 0.000000
vt 0.017500 -0.045000 0.000000
vt -0.017500 0.045000 0.000000
vt 0.017500 0.045000 0.000000
vt 0.044550 0.045000 0.000000
vt -0.044550 0.045000 0.000000
vt 0.044550 -0.045000 0.000000
vt -0.044550 -0.045000 0.000000
vt -0.017500 0.000000 0.000000
vt 0.017500 0.000000 0.000000
vt -0.017500 0.080000 0.000000
vt 0.017500 0.080000 0.000000
vt -0.045000 0.000000 0.000000
vt 0.045000 0.000000 0.000000
vt -0.045000 0.080000 0.000000
vt 0.045000 0.080000 0.000000
vt -0.045000 0.000000 0.000000
vt 0.045000 0.000000 0.000000
vt -0.045000 0.080000 0.000000
vt 0.045000 0.080000 0.000000
vn -0.000000 -0.100000 0.000000
vn -0.000000 -0.100000 0.000000
vn -0.000000 -0.100000 0.000000
vn -0.000000 -0.100000 0.000000
vn 0.000000 0.000000 0.100000
vn 0.000000 0.000000 0.100000
vn 0.000000 0.000000 0.100000
vn 0.000000 0.000000 0.100000
vn -0.000000 0.000000 -0.100000
vn -0.000000 0.000000 -0.100000
vn -0.000000 0.000000 -0.100000
vn -0.000000 0.000000 -0.100000
vn 0.000000 0.000000 0.100000
vn 0.000000 0.000000 0.100000
vn 0.000000 0.000000 0.100000
vn 0.000000 0.000000 0.100000
vn -0.000000 -0.100000 -0.000000
vn -0.000000 -0.100000 -0.000000
vn -0.000000 -0.100000 -0.000000
vn -0.000000 -0.100000 -0.000000
vn 0.000000 0.100000 0.000000
vn 0.000000 0.100000 0.000000
vn 0.000000 0.100000 0.000000
vn 0.000000 0.100000 0.000000
vn -0.000000 0.000000 -0.100000
vn -0.000000 0.000000 -0.100000
vn -0.000000 0.000000 -0.100000
vn -0.000000 0.000000 -0.100000
vn 0.000000 -0.100000 -0.000000
vn 0.000000 -0.100000 -0.000000
vn 0.000000 -0.100000 -0.000000
vn 0.000000 -0.100000 -0.000000
vn 0.000000 0.000000 0.100000
vn 0.000000 0.000000 0.100000
vn 0.000000 0.000000 0.100000
vn 0.000000 0.000000 0.100000
vn 0.100000 0.000000 0.000000
vn 0.100000 0.000000 0.000000
vn 0.100000 0.000000 0.000000
vn 0.100000 0.000000 0.000000
vn 0.100000 0.000000 0.000000
vn 0.100000 0.000000 0.000000
vn 0.100000 0.000000 0.000000
vn 0.100000 0.000000 0.000000
vn -0.100000 0.000000 0.000000
vn -0.100000 0.000000 0.000000
vn -0.100000 0.000000 0.000000
vn -0.100000 0.000000 0.000000
vn -0.100000 0.000000 0.000000
vn -0.100000 0.000000 0.000000
vn -0.100000 0.000000 0.000000
vn -0.100000 0.000000 0.000000
vn -0.000000 0.100000 0.000000
vn -0.000000 0.100000 0.000000
vn -0.000000 0.100000 0.000000
vn -0.000000 0.100000 0.000000
vn 0.000000 0.100000 -0.000000
vn 0.000000 0.100000 -0.000000
vn 0.000000 0.100000 -0.000000
vn 0.000000 0.100000 -0.000000
vn -0.000000 0.000000 -0.100000
vn -0.000000 0.000000 -0.100000
vn -0.000000 0.000000 -0.100000
vn -0.000000 0.000000 -0.100000
vn -0.100000 0.000000 0.000000
vn -0.100000 0.000000 0.000000
vn -0.100000 0.000000 0.000000
vn -0.100000 0.000000 0.000000
vn 0.100000 0.000000 -0.000000
vn 0.100000 0.000000 -0.000000
vn 0.100000 0.000000 -0.000000
vn 0.100000 0.000000 -0.000000
usemtl 139,101,8
f 2/1/1 3/2/2 1/3/3
f 1/3/3 3/2/2 4/4/4
f 5/5/5 6/6/6 1/7/7
f 1/7/7 6/6/6 2/8/8
f 7/9/9 8/10/10 3/11/11
f 3/11/11 8/10/10 4/12/12
usemtl 211,211,211
f 9/13/13 10/14/14 12/15/15
f 12/15/15 10/14/14 11/16/16
f 10/17/17 9/18/18 14/19/19
f 14/19/19 9/18/18 13/20/20
f 12/21/21 11/22/22 16/23/23
f 16/23/23 11/22/22 15/24/24
f 17/25/25 18/26/26 20/27/27
f 20/27/27 18/26/26 19/28/28
f 18/29/29 17/30/30 22/31/31
f 22/31/31 17/30/30 21/32/32
f 22/33/33 21/34/34 24/35/35
f 24/35/35 21/34/34 23/36/36
f 3/37/37 2/38/38 21/39/39
f 21/39/39 2/38/38 6/40/40
f 21/39/39 6/40/40 23/41/41
f 23/41/41 6/40/40 7/42/42
f 23/41/41 7/42/42 20/43/43
f 20/43/43 7/42/42 17/44/44
f 17/44/44 7/42/42 3/37/37
f 17/44/44 3/37/37 21/39/39
f 12/45/45 5/46/46 9/47/47
f 9/47/47 5/46/46 1/48/48
f 9/47/47 1/48/48 4/49/49
f 5/46/46 12/45/45 8/50/50
f 8/50/50 12/45/45 16/51/51
f 8/50/50 16/51/51 13/52/52
f 8/50/50 13/52/52 4/49/49
f 4/49/49 13/52/52 9/47/47
f 20/53/53 19/54/54 23/55/55
f 23/55/55 19/54/54 24/56/56
usemtl 139,101,8
f 5/57/57 8/58/58 6/59/59
f 6/59/59 8/58/58 7/60/60
usemtl 211,211,211
f 14/61/61 13/62/62 15/63/63
f 15/63/63 13/62/62 16/64/64
f 18/65/65 22/66/66 19/67/67
f 19/67/67 22/66/66 24/68/68
f 10/69/69 14/70/70 11/71/71
f 11/71/71 14/70/70 15/72/72

# 24 vertices
# 72 texture params
# 72 normals
# 44 facets

# 1 groups
